<?xml version="1.0" encoding="UTF-8"?>
<!DOCTYPE svg PUBLIC "-//W3C//DTD SVG 1.1//EN" "http://www.w3.org/Graphics/SVG/1.1/DTD/svg11.dtd">
<!-- Creator: CorelDRAW 2021 (64-Bit) -->
<svg xmlns="http://www.w3.org/2000/svg" xml:space="preserve" width="0.106063in" height="0.0534646in" version="1.1" style="shape-rendering:geometricPrecision; text-rendering:geometricPrecision; image-rendering:optimizeQuality; fill-rule:evenodd; clip-rule:evenodd"
viewBox="0 0 106.06 53.46"
 xmlns:xlink="http://www.w3.org/1999/xlink"
 xmlns:xodm="http://www.corel.com/coreldraw/odm/2003">
 <defs>
  <style type="text/css">
   <![CDATA[
    .str0 {stroke:#CCCCCC;stroke-width:3;stroke-miterlimit:2.61313}
    .fil1 {fill:none;fill-rule:nonzero}
    .fil0 {fill:#CCCCCC}
   ]]>
  </style>
 </defs>
 <g id="Layer_x0020_1">
  <metadata id="CorelCorpID_0Corel-Layer"/>
  <g>
   <path class="fil0" d="M76.76 5.56c0,2.05 2.62,3.96 4.72,6.05 2.04,2.05 15.11,14.89 15.8,15.9 -31,0 -62.45,0.17 -93.44,0 -2.16,-0.01 -4.14,0.03 -4.14,2.7 0,2.34 2.63,2.29 3.93,2.28 31.04,-0.18 62.59,0 93.65,0 -0.69,1.01 -15.78,15.88 -18.28,18.38 -1.24,1.25 -2.23,1.72 -2.23,3.57 0,1.19 1.2,2.28 2.28,2.28 1.82,0 5.83,-4.69 7.2,-6.06l16.58 -16.57c1.78,-1.78 2.77,-2.81 2.95,-3.77l0 -0.64c-0.17,-0.93 -1.12,-1.95 -2.85,-3.67l-19.89 -19.89c-0.75,-0.74 -2.6,-2.85 -3.78,-2.85 -1.34,0 -2.49,0.94 -2.49,2.28z"/>
   <path id="_1" class="fil1 str0" d="M76.76 5.56c0,2.05 2.62,3.96 4.72,6.05 2.04,2.05 15.11,14.89 15.8,15.9 -31,0 -62.45,0.17 -93.44,0 -2.16,-0.01 -4.14,0.03 -4.14,2.7 0,2.34 2.63,2.29 3.93,2.28 31.04,-0.18 62.59,0 93.65,0 -0.69,1.01 -15.78,15.88 -18.28,18.38 -1.24,1.25 -2.23,1.72 -2.23,3.57 0,1.19 1.2,2.28 2.28,2.28 1.82,0 5.83,-4.69 7.2,-6.06l16.58 -16.57c1.78,-1.78 2.77,-2.81 2.95,-3.77l0 -0.64c-0.17,-0.93 -1.12,-1.95 -2.85,-3.67l-19.89 -19.89c-0.75,-0.74 -2.6,-2.85 -3.78,-2.85 -1.34,0 -2.49,0.94 -2.49,2.28z"/>
  </g>
 </g>
</svg>
