<?xml version="1.0" encoding="UTF-8"?>
<!DOCTYPE svg PUBLIC "-//W3C//DTD SVG 1.1//EN" "http://www.w3.org/Graphics/SVG/1.1/DTD/svg11.dtd">
<!-- Creator: CorelDRAW 2021 (64-Bit) -->
<svg xmlns="http://www.w3.org/2000/svg" xml:space="preserve" width="5in" height="5in" version="1.1" style="shape-rendering:geometricPrecision; text-rendering:geometricPrecision; image-rendering:optimizeQuality; fill-rule:evenodd; clip-rule:evenodd"
viewBox="0 0 5000 5000"
 xmlns:xlink="http://www.w3.org/1999/xlink"
 xmlns:xodm="http://www.corel.com/coreldraw/odm/2003">
 <defs>
  <style type="text/css">
   <![CDATA[
    .str0 {stroke:#666666;stroke-width:3;stroke-linecap:round;stroke-linejoin:round;stroke-miterlimit:2.61313}
    .fil0 {fill:#666666}
   ]]>
  </style>
 </defs>
 <g id="Layer_x0020_1">
  <metadata id="CorelCorpID_0Corel-Layer"/>
  <path class="fil0 str0" d="M0 703.13l0 3593.75c0,367.43 335.69,703.12 703.12,703.12l1503.91 0 0 -1767.57 -585.94 0 0 -878.91 585.94 0c0,-262.22 -27.27,-714.8 68.36,-927.73 54.12,-120.52 103.69,-196.46 192.87,-285.65 185.69,-185.69 401.97,-261.22 686.04,-261.22l820.31 0 0 878.91 -888.67 0 0 595.7 888.67 0c-8.74,18.23 -146.48,827.37 -146.48,878.91l-742.19 0 0 1767.57 1210.94 0c367.43,0 703.12,-335.69 703.12,-703.12l0 -3593.75c0,-367.43 -335.69,-703.12 -703.12,-703.12l-3593.75 0c-367.43,0 -703.12,335.69 -703.12,703.12z"/>
 </g>
</svg>
