<?xml version="1.0" encoding="UTF-8"?>
<!DOCTYPE svg PUBLIC "-//W3C//DTD SVG 1.1//EN" "http://www.w3.org/Graphics/SVG/1.1/DTD/svg11.dtd">
<!-- Creator: CorelDRAW 2021 (64-Bit) -->
<svg xmlns="http://www.w3.org/2000/svg" xml:space="preserve" width="5in" height="5in" version="1.1" style="shape-rendering:geometricPrecision; text-rendering:geometricPrecision; image-rendering:optimizeQuality; fill-rule:evenodd; clip-rule:evenodd"
viewBox="0 0 5000 5000"
 xmlns:xlink="http://www.w3.org/1999/xlink"
 xmlns:xodm="http://www.corel.com/coreldraw/odm/2003">
 <defs>
  <style type="text/css">
   <![CDATA[
    .str0 {stroke:#666666;stroke-width:3;stroke-linecap:round;stroke-linejoin:round;stroke-miterlimit:2.61313}
    .fil0 {fill:#666666}
   ]]>
  </style>
 </defs>
 <g id="Layer_x0020_1">
  <metadata id="CorelCorpID_0Corel-Layer"/>
  <path class="fil0 str0" d="M4.89 1835.94l0 1337.89c0,674.56 78.75,1069.09 422.36,1413.58 340.69,341.56 763.84,412.59 1433.1,412.59l1279.3 0c519.04,0 995,-22.75 1374.78,-353.74 374.1,-326.04 480.69,-762.59 480.69,-1247.82l0 -1835.94c0,-489.89 -132.69,-917.52 -485.26,-1213.96 -386.61,-325.06 -832.71,-348.54 -1360.44,-348.54l-1289.06 0c-549.43,0 -1053.84,32.36 -1433.1,412.59 -344.5,345.37 -422.36,747.17 -422.36,1423.34zm3535.15 -703.13l0 48.83c0,149.27 133.94,283.2 283.2,283.2 107.37,0 157.48,-12.11 237.08,-94.95 263.63,-274.33 -142.33,-688.83 -420.37,-430.14 -43.7,40.67 -99.91,113.56 -99.91,193.06zm-2324.21 1367.19c0,1128.89 1417.44,1786.91 2272.87,827.56 189.5,-212.52 305.25,-536.64 305.25,-827.56 0,-989.41 -1114.04,-1665.5 -2023.53,-1056.73 -310.92,208.11 -554.59,610.42 -554.59,1056.73z"/>
 </g>
</svg>
