<?xml version="1.0" encoding="UTF-8"?>
<!DOCTYPE svg PUBLIC "-//W3C//DTD SVG 1.1//EN" "http://www.w3.org/Graphics/SVG/1.1/DTD/svg11.dtd">
<!-- Creator: CorelDRAW 2021 (64-Bit) -->
<svg xmlns="http://www.w3.org/2000/svg" xml:space="preserve" width="5in" height="3.511in" version="1.1" style="shape-rendering:geometricPrecision; text-rendering:geometricPrecision; image-rendering:optimizeQuality; fill-rule:evenodd; clip-rule:evenodd"
viewBox="0 0 5000 3511"
 xmlns:xlink="http://www.w3.org/1999/xlink"
 xmlns:xodm="http://www.corel.com/coreldraw/odm/2003">
 <defs>
  <style type="text/css">
   <![CDATA[
    .str0 {stroke:#999999;stroke-width:3;stroke-linecap:round;stroke-linejoin:round;stroke-miterlimit:2.61313}
    .fil0 {fill:#999999}
   ]]>
  </style>
 </defs>
 <g id="Layer_x0020_1">
  <metadata id="CorelCorpID_0Corel-Layer"/>
  <g id="_2166857025296">
   <g>
    <path class="fil0 str0" d="M3577.63 2838.33c-48.4,7.02 -88.59,20.82 -123.7,44.46 -118.01,79.52 -141.32,260.16 -113.53,391.81 21.66,102.2 63.34,163.54 137.88,201.74 70.81,36.3 219.45,40.95 307.44,28.98 103.08,-14.01 169.85,-63.44 205.86,-134.27 67.52,-132.37 67.37,-411.82 -104.13,-501.53 -75.14,-39.32 -219.6,-44.25 -309.83,-31.19zm15.69 131.64c-123.39,20.66 -149.24,154.77 -122.35,285.38 11.95,57.8 43.17,96.79 96.51,112.71 40.19,12 167.61,12.89 209.74,5.06 135.35,-25.16 135.65,-198.27 114.28,-285.31 -14.94,-61.38 -41.52,-95.26 -97.25,-112.73 -37.65,-11.79 -161.49,-11.71 -200.93,-5.11z"/>
    <path class="fil0 str0" d="M1952.57 3376.91c-9.71,31.95 -6.12,97.49 -2.69,132.33 110.1,-1.17 403.2,15.21 485.67,-20.7 145.35,-63.22 123.54,-270.17 44.67,-335.65 -51.09,-42.5 -123.24,-48.43 -202.42,-48.33 -70.06,0.09 -191.67,19.15 -206.16,-48.88 -21.36,-100.49 78.43,-88.93 156.86,-88.93 87.39,0.01 174.94,-0.46 262.48,0.15l1.2 -132.67c-114.13,0.93 -393.49,-19.17 -474.61,32.34 -112.94,71.74 -109.05,273.8 11.8,335.83 132.66,68.06 415.9,-38.15 378.1,121.12 -17.63,73.96 -128.18,53.5 -203.77,53.5 -83.66,0 -167.46,0.45 -251.12,-0.1z"/>
    <path class="fil0 str0" d="M4243 2964.76c125.04,16.43 358.38,-19.82 405.59,20.3 27.93,23.77 36.75,69.07 14.79,107.04 -30.03,52.24 -159.85,35.52 -249.03,35.46 -194.8,-0.12 -174.78,21.17 -170.75,357.53l0.59 21.81 130.57 0.97 1.05 -252.36c142.67,-8.52 347.78,39.93 412.16,-119.12 18.82,-46.57 26.59,-97.39 13.74,-150.15 -22.41,-92.6 -90.68,-147.31 -201.97,-151.67 -77.39,-3.03 -289.22,-8.54 -356.89,2.36l0.15 127.83z"/>
    <path class="fil0 str0" d="M193.97 2967l4.33 -0.04c125.94,15.09 354.65,-19.91 401.41,19.76 13.15,11.19 21.96,27.13 25.39,44.83 1.05,8.32 0.9,17.45 -0.3,27.44 -7.32,60.26 -51.69,68.87 -112.94,68.69 -77.39,-0.25 -184.8,-10.84 -250.53,8.67 -18.07,4.32 -31.52,11.2 -41.53,21.98 -3.89,3.76 -7.17,7.93 -9.86,12.54 -1.34,2.46 -2.69,5.69 -3.88,9.57 -12.55,30.2 -14.49,78.02 -13.74,153.45 -1.05,58.87 0.3,119.17 2.39,155.27l0.45 19.42 1.04 0.02 0 0.72 64.83 -0.24 64.83 0.48 0.9 -252.38c79.18,-4.7 177.32,8.04 260.09,-6.66 11.8,-2 23.45,-4.66 34.66,-8.17 50.34,-15.24 92.02,-44.74 115.93,-100.67 20.17,-41.65 27.79,-93.43 16.73,-151.75 -18.08,-94.61 -91.43,-149.76 -198.84,-155.17 -48.4,-2.44 -98.44,-2.65 -148.94,-2.2 -59.16,-0.79 -121.75,-0.64 -167.32,1.84 -15.24,0.01 -30.32,-0.07 -45.26,-0.31l0.15 132.93z"/>
    <polygon class="fil0 str0" points="1272.56,2965.61 1461.83,2966.97 1463.18,3508.04 1595.39,3508.62 1596.13,2966.88 1786.01,2966.74 1787.2,2834.32 1272.56,2834.49 "/>
    <polygon class="fil0 str0" points="2670.39,2966.67 2859.67,2966.74 2861.61,3506.29 2992.62,3509.11 2993.96,2967.39 3185.33,2966.65 3186.23,2834.69 2670.24,2834.5 "/>
    <polygon class="fil0 str0" points="950.63,3508.46 974.98,3509.17 1055.2,3509.05 1080.44,3508.98 1081.94,2834.55 950.63,2834.58 "/>
   </g>
   <g>
    <g>
     <path class="fil0 str0" d="M4656.2 2134.37c-128.84,11.69 -244.79,-65.09 -308.15,-122.6 -62.41,-56.67 -131.51,-162.23 -144.95,-288.81 -24.87,-234.15 121.23,-442.54 356.46,-503.88 146.78,-38.28 308.81,11.79 408.99,97.76 26.03,22.34 30.68,30.6 25.97,72.45 -20.76,184.37 -69.92,335.76 -156.85,493.48 -25.32,45.93 -55.57,92.47 -85.35,131.31 -14.18,18.49 -33.53,45.78 -47.22,61 -20.84,23.17 -32.72,37.8 -48.9,59.3z"/>
     <path class="fil0 str0" d="M2493.08 1071.04l14.31 -90.94c55.33,-236.69 178.43,-451.87 336.65,-610.78 26.74,-26.87 137.86,-128.16 180.27,-142.31 17.94,132 36.41,181.34 6.47,322.5 -20.85,98.34 -58.86,177.28 -106.8,244.88 -89.76,126.57 -219.32,232.27 -430.9,276.64z"/>
     <path class="fil0 str0" d="M3759.36 2524.21c-160.91,7.1 -164.35,1.89 -234.42,-68.22 -47.87,-47.91 -90.59,-90.72 -138.65,-138.78l-820.35 -822.3c16.44,-10.36 91.43,-22.24 114.46,-23.27 38.63,-1.72 56.36,42.06 75.01,62.25 23.42,25.4 47,47.77 68.15,73.7 62.16,76.19 26.01,1.06 76.31,52.09l716.83 718.07c35.85,35.94 119.38,111.18 142.67,146.45z"/>
     <path class="fil0 str0" d="M3555.74 2509.21c-44.88,-0.74 -163.4,-27.65 -202.17,-44.17 -36,-15.33 -666.12,-658.29 -761.87,-753.99 -105.28,-105.22 -44.94,-95.18 -89.78,-168.06l-15.27 59.21 -63.07 -63.66c17.46,-28.66 23.33,-29.52 95.85,-38.99 41.41,-5.41 57.13,28.15 78.61,49.51l821.87 822.49c43.65,43.69 98.45,92.75 135.83,137.65z"/>
     <path class="fil0 str0" d="M3766.43 2146.17c-13.09,38.99 -30.4,3.22 27.43,88.25 20.17,29.63 36.5,57.21 56.5,85.14 85.96,-16.49 51.84,-36.33 132.26,44.14 35.22,35.25 76.49,72.43 106.95,108.7 -24.91,13.67 -106.38,31.02 -139.63,31.93l-231.61 -234.94c-57.57,-57.61 -683.09,-671.19 -698.27,-707.11l49.12 -18.91 -21.06 -108.2c47.94,26.26 612.94,619.36 718.33,711.02z"/>
     <path class="fil0 str0" d="M3931.53 2503.55l-103.69 18.6c-58.16,4.86 -52.49,-6.03 -82.39,-36.3 -88.17,-89.32 -830.69,-823.22 -849.87,-854.49l106.39 -55.9 929.56 928.09z"/>
     <path class="fil0 str0" d="M4424.27 915.21l-114.52 49.19c-85.22,-74.89 -390.14,-392.28 -494.79,-497.09 -28.87,-28.92 -52.13,-52.76 -81.24,-81.18 -49.18,-48.03 -34,-45.4 -37.2,-132.96 -75.57,-39.07 -91.85,4.41 -169.08,-73.57 -32.03,-32.33 -101.18,-84.3 -110.91,-138.63 37.14,-8.51 81.18,-22.8 122.38,-21.06 21.32,30.55 76.47,79.64 106.39,109.52 38.95,38.91 72.28,72.98 111.5,111.77l446.49 446.73c37.54,37.59 205.68,197.21 220.96,227.28z"/>
     <path class="fil0 str0" d="M4467.09 765.12l-31.54 132.51 -884 -882.78c30.41,-7.05 58.74,-8.98 88.8,-11.23 88.47,-6.61 63.01,-5.38 190.87,122.59l635.88 638.92z"/>
     <path class="fil0 str0" d="M4956.13 936.77c-68.92,-11.07 -158.59,-33.3 -195.46,-95.77 -32.11,-54.41 -51.71,-156.11 -86.44,-204.45 -148.17,0.16 -75.48,46.19 -226.61,-104.96 -142.07,-142.08 -380.78,-390.79 -514.75,-514.93 54.74,2.97 136.17,25.62 188.84,42.23 52.67,16.6 99.28,77.44 132.76,110.95l608.77 609.28c53.39,53.32 71.6,54.15 92.89,157.65z"/>
     <path class="fil0 str0" d="M3848.65 2044.18c-10.46,20.78 -46.34,57.57 -64.54,90.96 -35.76,-12.38 -177.7,-166.76 -214.94,-203.84l-523.38 -526.06c-7.53,-12.74 -19,-65.82 -19.72,-80.87 -1.46,-30.87 28,-44.58 44.53,-57.47 18.99,10.91 762.29,751.92 778.05,777.28z"/>
     <path class="fil0 str0" d="M3863.45 2029.98l-779.33 -775.52c18.23,-24.64 64.98,-65.97 87.98,-77.97 33.88,26.46 71.57,69.3 103.32,101.13l335.03 334.86c19.74,23.84 6.75,19.25 18.03,35.17 5.71,8.04 44.26,27.5 59.63,42.82 40.56,40.42 211.31,197.39 223.46,237.09 8.55,27.89 8.08,23.44 -1.64,41.89 -7.14,13.54 -36.12,46.06 -46.48,60.52z"/>
     <path class="fil0 str0" d="M4533.98 634.51c-1.52,1.54 -4.24,1.04 -5.23,3.79l-32.68 15.73 -23.19 89.26 -744.32 -740.65c31.65,-4.47 135.87,-0.72 165.94,6.77 34.45,8.56 402.77,392.32 454.9,444.44 37.04,37.04 151.26,160.65 184.57,180.66z"/>
     <path class="fil0 str0" d="M3992.53 1238.85c-13.46,35.21 -32.63,84.76 -55.83,108.92 -78.32,-62.19 -480.83,-492.82 -529.4,-525.7l32.98 -131.83c33.76,15.93 255.29,247.76 279.28,271.77 46.85,46.91 88.75,88.78 135.27,135.41 37.51,37.6 110.52,102.41 137.69,141.44z"/>
     <path class="fil0 str0" d="M4293.51 968.28c-38.44,35.69 -59.39,20.05 -97.5,-2.36 -49.83,-29.34 -143.5,-69.2 -179.06,-105.08 -62.44,-63.01 -331.33,-325.5 -356.19,-360.03 5.59,-2.49 16.52,-5.91 18.33,-6.71 17.33,-7.66 7.62,-0.25 23.3,-13.2l-1.87 -101c27.25,13.46 375.23,369 445.64,439.68 47.58,47.77 105.65,99.8 147.34,148.7z"/>
     <path class="fil0 str0" d="M3302.19 2443.14c-298.75,-77.76 -661.64,-444.14 -746.21,-743.24l746.21 743.24z"/>
     <path class="fil0 str0" d="M3903.44 961.39c-10.25,17.75 -11.11,14.36 -24.84,28.48l98.79 206.59c-67.15,-54.5 -450.8,-449.5 -528.83,-526.08 1.85,-27.92 15.15,-98.91 34.79,-116.96 31.5,2.36 76.5,59.56 110.96,93.95 36.81,36.72 68.31,68.43 104.83,104.94 40.98,40.98 182.54,172.33 204.3,209.07z"/>
     <path class="fil0 str0" d="M4912.2 804.71l-717.97 -716.04c67.35,15.4 189.91,85.85 238.65,119.26 81.14,55.57 130.82,95.74 196.81,161.92 101.1,101.37 242.33,288.07 282.52,434.85z"/>
     <path class="fil0 str0" d="M3652.28 1461.46c-19,28.28 -18.11,96.35 -26.31,142.17 -26.85,-16.57 -83.3,-79.16 -110.24,-106.16 -38.54,-38.62 -73.04,-73.1 -111.62,-111.7 -39,-39.01 -72.65,-72.61 -111.59,-111.7 -19.48,-19.56 -34.18,-34.27 -54.12,-54.16 -21.02,-20.99 -43.16,-33.82 -55.43,-64.89l30.22 -23.51c33.76,-3.48 127.47,24.46 147.41,40.66 30.12,24.45 68.44,68.47 98.07,98.13l193.59 191.18z"/>
     <path class="fil0 str0" d="M4999.3 1223.05l0.7 38.5 -94.55 -57.76c-267.5,-136.06 -587.78,-25.09 -717.62,252.41 -138.42,295.84 39.26,680.63 400.11,734.93 -24.6,38 -42.98,31.88 -113.23,5.26 -39.54,-14.99 -75.69,-32.89 -107.93,-54.45 -75.16,-50.26 -112.71,-82.86 -164.59,-160.36 -333.56,-498.3 263.74,-1129.5 797.11,-758.53z"/>
     <path class="fil0 str0" d="M4001.46 867.75c-14.81,17.54 -63.55,70.81 -85.06,80.56l-400.06 -399.51c6.59,-6.2 0.21,-3.7 17.28,-11.17 1.72,-0.75 15.27,-4.78 20.05,-6.07 113.82,-30.56 54.35,-59.19 226.34,112.8l221.46 223.38z"/>
     <path class="fil0 str0" d="M2480.64 1179.99l4.78 -49.35c237.75,-46.48 391.56,-163.52 488.85,-306.2 131.87,-193.4 154.57,-373.62 98.44,-634.19l43.94 -25.01c25.96,144.11 54.87,228.5 22.72,384.75 -65.64,319.08 -297.06,573.85 -658.73,629.99z"/>
     <path class="fil0 str0" d="M3929.19 1367.43c-18.03,55.14 -33.07,59.17 -100.75,62.02l-325 -324.7 59.5 -102.4c29.73,15.12 152.18,146.36 186.29,180.39 34.78,34.72 162.77,154.52 179.95,184.69z"/>
     <path class="fil0 str0" d="M3807.54 1435.58c-164.03,45.59 -128.46,35.94 -241.28,-76.62 -58.1,-57.95 -131.27,-124.02 -181.81,-184.41l65.17 15.26c5.62,-8.6 13.76,-20.31 20.51,-31.76l15.73 -25.12c6.98,-8.24 4.45,-5.37 11.03,-10.5 28.43,20.14 298.4,291.17 310.65,313.15z"/>
     <path class="fil0 str0" d="M4229.02 2421.31c-23.05,18.83 -58.44,28.51 -87.6,38.26 -47.09,15.75 -45.16,-0.48 -75.1,-30.69 -43.17,-43.55 -86.93,-84.4 -127.13,-128.49l125.71 -40.79 164.12 161.71z"/>
     <path class="fil0 str0" d="M4272.6 2406.65c-39.63,14.37 -33.49,3.89 -97.18,-59.84 -26.29,-26.33 -69.56,-64.44 -88.08,-92.1 41.98,-13.93 106.89,53.84 158.47,89.36 26.61,18.3 36.22,19.59 26.78,62.58z"/>
     <path class="fil0 str0" d="M3896.26 1874.57l-183.02 -179.5c43.8,14.67 85.07,33.72 127.62,52.58 35.65,15.8 29.16,9.59 38.35,49.89 5.6,24.61 14.04,50.2 17.05,77.03z"/>
    </g>
    <g>
     <path class="fil0 str0" d="M2497.12 980.72l-14.32 90.95c-429.91,59.85 -749.26,-228.15 -791.06,-582.99 -13.15,-111.58 9.17,-306.1 69.44,-383.8 145.2,38.38 364.28,225.43 463.56,339.29 51.35,58.91 119.62,158.44 162.56,243.62 42.66,84.63 109.16,291.85 109.83,292.92z"/>
     <path class="fil0 str0" d="M2195.52 2105.71c-10.9,28.4 -58.25,70.87 -81.49,85.24l-734.15 -732.51c-123.45,-123.56 -241.93,-242.04 -365.3,-365.54 -98.64,-98.76 -283.48,-276.39 -367.07,-368.75 11.08,-33.49 19.07,-84.54 49.21,-106.28 26.83,5.5 33.07,19.26 51.33,37.78 17.3,17.56 29.78,29.89 47.3,47.43 33.28,33.27 61.5,61.61 94.71,94.8l371.99 372.35c55.76,55.8 136.65,126.38 182.66,189.32l561.4 555.34c61.84,61.79 132.52,125.81 189.42,190.81z"/>
     <path class="fil0 str0" d="M1881.76 2363.12c-22.24,14.91 -83.97,47.76 -114.92,53.72l-1391.11 -1393.93c10.41,-12.35 35.22,-25.04 51.42,-35.05 65.07,-40.2 90.17,6.24 161.46,77.65l1200.57 1201.68c27.85,27.89 72.04,66.85 92.57,95.92z"/>
     <path class="fil0 str0" d="M169.83 1266.95c67.06,-7.44 57.2,6.05 96.98,45.95 27.34,27.43 50.07,50.06 77.8,77.85l794.78 795.46c106.95,107.04 213.28,209.87 317.7,318.78 -4.74,3.03 0.45,1.91 -14.58,6.39 -6.38,1.9 -9.87,2.57 -16.33,3.66 -142.22,24.05 -119.72,8.32 -216.24,-88.09l-913.14 -913.96c-62.74,-62.65 -119.91,-120.2 -182.63,-182.78 -32.07,-32 -59.68,-59.65 -91.71,-91.02 -25.98,-25.43 -22.8,-24.02 -18.27,-72.2 2.56,-27.14 4.08,-57.62 11.25,-83.63 55.32,-2.69 136.96,133.84 154.38,183.58z"/>
     <path class="fil0 str0" d="M2099.44 2207.22c-20.25,22.02 -61.84,54.3 -87.9,69.27l-1301.49 -1299.19c12.44,-24.23 17.91,-18.67 27.83,-42.35 -12.37,-26.55 -39.69,-64.69 -56.08,-91.23 -21.94,-35.6 -50.51,-58.77 -43.96,-100.21 26.93,13.16 322.89,316.46 369.66,363.24 72.93,72.92 1080.69,1070.76 1091.94,1100.47z"/>
     <path class="fil0 str0" d="M1752.81 2423.79c-17.44,13.25 -102.74,48.57 -122.14,41.19l-1167.55 -1165.69c-139.33,-139.14 -147.95,-115.29 -134.03,-213.33 14.81,-104.3 42.08,-47.13 167.37,78.46 61.2,61.37 117.84,117.91 179.25,179.41 120.96,121.16 237.59,237.62 358.49,358.8l718.61 721.16z"/>
     <path class="fil0 str0" d="M1997.36 2286.44l-99.03 68.42c-48.11,-36.23 -1336.06,-1333.13 -1348.16,-1350.94l100.83 37.39c14.96,-12.42 32.81,-36.56 47.85,-51.68l1298.5 1296.8z"/>
     <path class="fil0 str0" d="M1612.67 2471.16c-3.78,3.03 -3.51,3.7 -12.69,7.68 -7.39,3.21 -6.39,2.66 -15.03,5.2 -9.91,2.9 -21.74,5.31 -32.79,8.2 -27.38,7.15 -47.25,11.59 -77.04,13.71 -27.02,-36.45 -569.47,-572.61 -617.13,-620.32 -105.42,-105.6 -206.05,-206.21 -311.16,-311.39 -44.2,-44.2 -294.73,-286.2 -308.32,-314.46 66.35,-33.03 66.67,25.77 77.97,-79.22 26.81,6.89 907.2,900.6 971.68,965.13l324.5 325.47z"/>
     <path class="fil0 str0" d="M1285.6 2523.36c-39.1,5.76 -107.83,2.04 -147.18,-3.5 -44.09,-6.23 -64.69,-40.28 -90.57,-66.15l-1028.23 -1028.78c-23.47,-31.82 -20.12,-133.56 -18.35,-184.57l1284.33 1283z"/>
     <path class="fil0 str0" d="M1082.8 2509.67c-43.49,0.22 -177.43,-30.16 -212.4,-47.78l-802.98 -800.69c-19.67,-33.09 -50.39,-171.63 -51.22,-217.05l1066.61 1065.52z"/>
     <path class="fil0 str0" d="M1144.56 930.04c100.41,2.79 58.91,-7.57 194.98,128.81l161.04 162.36 -48.81 113.83c-33.09,-14.19 -496.24,-490.32 -545.64,-539.74 -36.43,-36.45 -161.5,-152.82 -180.13,-185.9 87.24,-21.11 109.07,-55.53 143.58,-21.69l203.59 202.96c17.33,17.34 36.17,30.93 46.12,55.69 7.81,19.45 20.82,61.07 25.28,83.67z"/>
     <path class="fil0 str0" d="M2282.84 2003.23c-15.14,33.15 -48.94,60.35 -65.47,92.15 -37.16,-11.65 -55.54,-43.3 -80.19,-67.96l-365.26 -365.59c-32.25,-32.28 -131.03,-121.72 -148,-151.66 28.16,-25.61 61.43,-48.55 96.67,-68.82l562.26 561.88z"/>
     <path class="fil0 str0" d="M83.24 824.91c10.85,-115.09 249.57,-452.96 338.2,-500.45 86,87.56 50.57,506.1 -338.2,500.45z"/>
     <path class="fil0 str0" d="M2103.48 1709.06c109.02,13.46 88.59,9.83 145.95,70.76 36.63,38.89 72.93,69.76 107.43,109.34 -14.61,29.47 -45.06,84.03 -67.41,99.37 -35.67,-35.76 -542.72,-532.08 -554.66,-561.24 15.69,-11.4 32.45,-24.15 53.38,-39.08 56.8,-40.53 98.1,24.35 163.61,93.77 32.3,34.24 61.5,61.13 95.37,94.08 71.12,69.21 23.5,44.06 56.33,132.99z"/>
     <path class="fil0 str0" d="M832.31 2447.98c-136.3,-32.51 -366.45,-189.77 -461.58,-291.53 -101.6,-108.68 -235.45,-270.52 -292.91,-461.94l754.49 753.47z"/>
     <path class="fil0 str0" d="M1247.11 589.81l-100.31 68.83 -483.89 -487.21c13.66,-33.33 10.54,-27.31 42.77,-41.74 20.08,-8.98 38.19,-19.36 60.15,-25.08 55.45,55.54 469.21,462.48 481.28,485.2z"/>
     <path class="fil0 str0" d="M2475.14 1131.28l-4.77 49.34c-348.65,31.25 -595.85,-117.15 -732.29,-303.81 -128.22,-175.44 -183.12,-379.13 -144.92,-610.04 13.28,-80.21 43.29,-136.78 62.89,-201.69l44.31 12.52c-0.87,37.56 -202.46,405.26 77.95,772.57 136.2,178.4 361.74,316 696.83,281.12z"/>
     <path class="fil0 str0" d="M1266.44 580.59c-5.45,-2.64 -447.82,-431.48 -484.9,-484.08 29.34,-13.82 83.73,-34.98 120.3,-42.07 30.4,20.94 283.66,281.37 337.65,333 29.25,27.98 29.83,24.89 30.35,80.35 0.33,35.94 8.55,79.89 -3.41,112.79z"/>
     <path class="fil0 str0" d="M1133.26 664.24l-27.52 21.33c-17.76,11.47 -13.12,9.92 -30.46,16.15l27.06 96.85 -229.27 -230.52c-5.42,-18.88 3.45,-107.35 -1.52,-144.04 -221.14,-86.47 -170.48,-11.27 -223.44,-149.12 -20.06,-52.24 -19.84,-47.59 3.02,-90.59l482.13 479.94z"/>
     <path class="fil0 str0" d="M1504.02 1204.43l-270.37 -276.01c185.74,-24.43 155.47,-2.81 214.21,83 17.39,25.39 91.5,114.49 84.39,141.01 -4.83,18.06 -16.79,41.44 -28.23,52z"/>
     <path class="fil0 str0" d="M538.95 467.98c0,146.5 -68.46,265.06 -142.38,327.07 -67.11,56.27 -207.55,140.78 -339.4,106.05 2.54,-65.06 18.14,-0.7 168.91,-46.67 199.61,-60.88 333.23,-285.39 261.83,-500.39 -16.76,-50.42 -44.86,-63.62 3.2,-84.3 20.3,70.39 47.83,104.72 47.83,198.24z"/>
     <path class="fil0 str0" d="M2419.77 1759.7c-6.43,30.39 -36.47,92.19 -54.74,112.76l-109.58 -105.39c-17.25,-16.33 -24.9,-21.8 -35.88,-42.87l118.49 11.65 15.26 -41.75 66.45 65.61z"/>
     <path class="fil0 str0" d="M1057.48 182.78l-135.11 -135.03c93.23,-29.54 193.13,-61.52 158.14,57.07 -7.59,25.67 -11.88,55.36 -23.04,77.96z"/>
     <path class="fil0 str0" d="M2423.63 1746.55l-64.24 -65.34c7.35,-31.16 33.85,-102.44 50.84,-121.74 63.94,67.63 77.28,46.5 28.48,161.81 -7.44,17.59 -5.59,14.36 -15.08,25.26z"/>
     <path class="fil0 str0" d="M2082.02 1586.15c-21.61,-10.28 -9.11,-2.56 -26.6,-18.67l-66.67 -68.35c-27.74,-26.2 -69.12,-59.5 -86.41,-91.86 36.45,8.66 88.41,36.15 127.26,50.85 41.83,15.81 38.14,4.69 52.41,128.03z"/>
     <path class="fil0 str0" d="M1264.95 307.15l1.33 84.66c-18.21,-11.63 -186.36,-177.04 -198.96,-197.24l197.63 112.58z"/>
    </g>
   </g>
  </g>
 </g>
</svg>
