<?xml version="1.0" encoding="UTF-8"?>
<!DOCTYPE svg PUBLIC "-//W3C//DTD SVG 1.1//EN" "http://www.w3.org/Graphics/SVG/1.1/DTD/svg11.dtd">
<!-- Creator: CorelDRAW 2021 (64-Bit) -->
<svg xmlns="http://www.w3.org/2000/svg" xml:space="preserve" width="5in" height="5.005in" version="1.1" style="shape-rendering:geometricPrecision; text-rendering:geometricPrecision; image-rendering:optimizeQuality; fill-rule:evenodd; clip-rule:evenodd"
viewBox="0 0 5000 5005"
 xmlns:xlink="http://www.w3.org/1999/xlink"
 xmlns:xodm="http://www.corel.com/coreldraw/odm/2003">
 <defs>
  <style type="text/css">
   <![CDATA[
    .str0 {stroke:#333333;stroke-width:3;stroke-linecap:round;stroke-linejoin:round;stroke-miterlimit:2.61313}
    .fil0 {fill:#333333}
   ]]>
  </style>
 </defs>
 <g id="Layer_x0020_1">
  <metadata id="CorelCorpID_0Corel-Layer"/>
  <path class="fil0 str0" d="M2500 0.89c-1380.72,0 -2500.01,1120.37 -2500.01,2502.44 0,1382.07 1119.29,2502.44 2500.01,2502.44 1380.72,0 2500.01,-1120.37 2500.01,-2502.44 0,-1382.07 -1119.29,-2502.44 -2500.01,-2502.44zm12.54 751.87c-457.81,0 -828.94,371.48 -828.94,829.74 0,458.25 371.13,829.74 828.94,829.74 457.81,0 828.93,-371.49 828.93,-829.74 0,-458.26 -371.12,-829.74 -828.93,-829.74zm-1294.29 2639.97c-60.98,211.45 -52.87,373.59 50.62,487.06 665.45,560.12 1585.81,668.37 2370.48,73.46 181.27,-131.6 190.1,-248.94 168.37,-461 -94.48,-346.86 -273.04,-638.17 -821.15,-685.28 -334.09,-2.67 -668.17,-5.35 -1002.26,-8.02 -354.04,52.95 -637,210.35 -766.07,593.78z"/>
 </g>
</svg>
