<?xml version="1.0" encoding="UTF-8"?>
<!DOCTYPE svg PUBLIC "-//W3C//DTD SVG 1.1//EN" "http://www.w3.org/Graphics/SVG/1.1/DTD/svg11.dtd">
<!-- Creator: CorelDRAW 2021 (64-Bit) -->
<svg xmlns="http://www.w3.org/2000/svg" xml:space="preserve" width="5in" height="5.271in" version="1.1" style="shape-rendering:geometricPrecision; text-rendering:geometricPrecision; image-rendering:optimizeQuality; fill-rule:evenodd; clip-rule:evenodd"
viewBox="0 0 5000 5271"
 xmlns:xlink="http://www.w3.org/1999/xlink"
 xmlns:xodm="http://www.corel.com/coreldraw/odm/2003">
 <defs>
  <style type="text/css">
   <![CDATA[
    .str0 {stroke:#333333;stroke-width:3;stroke-linecap:round;stroke-linejoin:round;stroke-miterlimit:2.61313}
    .fil0 {fill:#333333}
   ]]>
  </style>
 </defs>
 <g id="Layer_x0020_1">
  <metadata id="CorelCorpID_0Corel-Layer"/>
  <path class="fil0 str0" d="M1856.63 197.44c-39,68.81 -34.03,114.28 -48.26,174.5 -106.62,451.34 -556.57,634.25 -939.72,478.16 -111.62,-45.46 -211.59,-40.17 -316.19,22.21 -154.79,92.31 -570.68,764.2 -551.82,982.59 24.88,288.01 336.94,253.28 417.05,674.39 90.39,475.06 -313.76,693.72 -355.36,767.1 -112.46,198.41 2.75,399.13 117.74,612.11 57.65,106.74 267.11,451.92 388.97,520.99 59.27,33.59 161.31,48.34 233.52,28.55 148.54,-40.73 217.8,-114.06 443.88,-84.99 316.51,40.7 506.41,244.96 585.72,529.13 12.26,43.94 10.12,64.85 20.76,107.09 59.83,238.03 291.65,249.89 479.29,259.64 159.24,8.29 570.99,4.93 706.42,-68.04 220.06,-118.56 133.95,-286.01 261.58,-511.2 150.34,-265.26 447.11,-378.6 732.93,-321.91 127.95,25.36 236.69,113.08 413.73,9.95 179.03,-104.28 548.3,-754.82 552.99,-963.84 1.62,-72.28 -13.15,-126.02 -53.92,-186.54 -81.21,-120.53 -272.04,-183.29 -327.72,-513.76 -74.03,-439.17 230.63,-578.05 329.09,-751.78 120.4,-212.43 -179.77,-662.89 -291.27,-830.05 -111.99,-167.87 -261.17,-369.33 -489.75,-304.24 -137.08,39.04 -186.54,87.97 -403.72,55.45 -245.18,-36.74 -429.36,-195.92 -524.74,-414.72 -41.37,-94.94 -33.76,-133.34 -50.46,-195.57 -79.82,-297.5 -520.7,-274.23 -795.96,-268.61 -198.33,4.06 -434.18,15.87 -534.79,193.37zm1076.92 1663.18c-433.59,-245.75 -984.2,-93.91 -1229.7,339.24 -245.5,433.15 -92.9,983.56 340.69,1229.31 433.59,245.75 984.2,93.91 1229.7,-339.24 245.5,-433.15 92.91,-983.56 -340.69,-1229.31z"/>
 </g>
</svg>
