<?xml version="1.0" encoding="UTF-8"?>
<!DOCTYPE svg PUBLIC "-//W3C//DTD SVG 1.1//EN" "http://www.w3.org/Graphics/SVG/1.1/DTD/svg11.dtd">
<!-- Creator: CorelDRAW 2021 (64-Bit) -->
<svg xmlns="http://www.w3.org/2000/svg" xml:space="preserve" width="5in" height="4.067in" version="1.1" style="shape-rendering:geometricPrecision; text-rendering:geometricPrecision; image-rendering:optimizeQuality; fill-rule:evenodd; clip-rule:evenodd"
viewBox="0 0 5000 4067"
 xmlns:xlink="http://www.w3.org/1999/xlink"
 xmlns:xodm="http://www.corel.com/coreldraw/odm/2003">
 <defs>
  <style type="text/css">
   <![CDATA[
    .str0 {stroke:#666666;stroke-width:3;stroke-linecap:round;stroke-linejoin:round;stroke-miterlimit:2.61313}
    .fil0 {fill:#666666}
   ]]>
  </style>
 </defs>
 <g id="Layer_x0020_1">
  <metadata id="CorelCorpID_0Corel-Layer"/>
  <g id="_2166869042272">
   <path class="fil0 str0" d="M4990.23 493.04c-33.39,2.78 -97.31,31.57 -131.06,44.72 -88.88,34.64 -339.71,99.85 -425.58,101.76 104.32,-90.67 123.94,-72.19 255.36,-232.92 120.65,-147.54 116.13,-202.43 174.33,-323.72 -60.1,14 -95.7,50.07 -149.57,75.04 -52.62,24.39 -103.48,45.76 -157.19,67.42 -105.85,42.7 -231.42,74.63 -347.54,101.69 -88.11,-131.59 -353.55,-264.05 -537.74,-302.1 -351.26,-72.56 -624.58,23.61 -886.67,235.11 -93.1,75.13 -181.96,193.05 -235.82,301.29 -59.23,119.05 -136.32,361.85 -113.07,513.48 8.6,56.06 7.09,151.88 25.25,189.72 -143.34,-33.39 -324.15,-10.57 -672.62,-118.39 -103.7,-32.08 -198.34,-60.86 -296.92,-103.47 -96.94,-41.9 -181.93,-83.31 -270.82,-129.57 -222.52,-115.82 -447.31,-290.3 -632.32,-461.43 -20.23,-18.71 -33.68,-34.06 -53.63,-53.79 -43.74,-43.25 -156.37,-183.15 -192.83,-207.56 -23.33,100.18 -224.55,367.43 -99.01,792.37 118.88,402.4 372.47,531.09 401.75,574.81 -143.48,0 -326.37,-61.94 -449.22,-126.95 0,384.64 197.06,704.7 480.31,886.88 70.9,45.6 153.68,81.52 233.8,108l80.06 27.36c1.46,0.63 4.55,1.84 6.61,3.15 -46.92,3.9 -115.5,23.89 -214.8,29.35 -97.65,5.37 -148.22,-13.22 -224.66,-19.58 72.79,312.44 416.88,625.68 750.91,694.41 46.74,9.62 133.57,27.06 186.59,28.25 -67.83,101.3 -477.38,291.12 -632.69,334.1 -228.7,63.28 -378.51,95.59 -627.07,95.59 -92.55,0 -147.95,-9.77 -234.37,-9.77l35.59 23.01c259.75,147.15 315.88,189.19 639.45,298.05 529.15,178.02 1218.72,182.33 1750.42,24.33 126.38,-37.56 251.97,-81.33 364.23,-133.82 60.85,-28.46 116.38,-49.52 171.19,-82.72 344.71,-208.82 408.35,-243.89 708.57,-541.42 417.73,-413.98 741.13,-1137.3 801.5,-1698.5 17.59,-163.51 21.23,-303.91 21.23,-486.58 71.62,-37.89 214.86,-170.92 276.02,-231.79 27.35,-27.22 33.86,-42.39 58.37,-68.58 34.74,-37.12 152.44,-175.21 163.65,-217.2z"/>
   <polygon class="fil0 str0" points="4990.23,493.04 5000,493.04 4991.86,481.64 "/>
  </g>
 </g>
</svg>
